<?xml version="1.0" standalone="no"?>
<!DOCTYPE svg PUBLIC "-//W3C//DTD SVG 20010904//EN"
 "http://www.w3.org/TR/2001/REC-SVG-20010904/DTD/svg10.dtd">
<svg version="1.0" xmlns="http://www.w3.org/2000/svg"
 width="500.000000pt" height="500.000000pt" viewBox="0 0 500.000000 500.000000"
 preserveAspectRatio="xMidYMid meet">
<metadata>
Created by potrace 1.16, written by Peter Selinger 2001-2019
</metadata>
<g transform="translate(0.000000,500.000000) scale(0.100000,-0.100000)"
fill="#000000" stroke="none">
<path d="M2425 3869 c-40 -23 -85 -73 -96 -107 -13 -39 -5 -122 16 -162 21
-40 82 -90 150 -121 l60 -28 -245 -1 c-214 0 -249 -2 -270 -17 -14 -9 -28 -22
-32 -27 -12 -17 -9 -255 2 -276 6 -11 28 -25 50 -31 39 -12 40 -14 40 -56 l0
-43 -325 0 c-281 0 -326 -2 -331 -15 -4 -8 -1 -22 6 -30 11 -13 65 -15 361
-15 l349 0 0 75 0 75 295 0 295 0 0 -130 0 -130 -612 -2 -613 -3 0 -25 0 -25
613 -3 612 -2 0 -160 0 -160 -279 0 c-154 0 -286 3 -295 6 -13 5 -16 24 -16
100 l0 94 -274 0 c-239 0 -275 -2 -287 -16 -11 -14 -10 -18 6 -30 15 -11 69
-14 257 -14 l238 0 0 -64 c0 -55 4 -69 26 -95 l26 -31 628 0 628 0 26 31 26
31 0 313 0 313 30 7 c58 13 70 43 70 180 l0 123 -31 26 -31 26 -251 0 -251 0
69 34 c94 45 149 104 166 180 11 51 10 62 -7 103 -11 26 -36 59 -57 77 -35 28
-46 31 -106 31 -57 0 -74 -4 -109 -28 -57 -37 -95 -92 -128 -185 -15 -42 -32
-88 -37 -102 -8 -22 -12 -16 -41 67 -62 178 -126 244 -239 250 -35 2 -71 -2
-82 -8z m147 -65 c50 -26 95 -108 132 -242 14 -50 26 -93 26 -96 0 -11 -237
76 -273 101 -156 108 -52 322 115 237z m551 4 c26 -13 57 -68 57 -101 0 -91
-68 -152 -234 -205 -66 -22 -123 -38 -125 -36 -8 7 72 225 98 265 34 54 50 67
98 84 37 13 71 11 106 -7z m367 -538 l0 -120 -25 0 c-25 0 -25 1 -25 85 0 73
-3 86 -19 95 -13 6 -247 10 -690 10 -644 0 -671 1 -671 18 0 10 3 22 7 25 3 4
325 7 715 7 l708 0 0 -120z m-90 -310 l0 -130 -30 0 -30 0 0 100 0 100 -265 0
-265 0 0 30 0 30 295 0 295 0 0 -130z m0 -338 c0 -153 -5 -172 -42 -172 -16 0
-18 11 -18 130 l0 130 -265 0 -265 0 0 30 0 30 295 0 295 0 0 -148z"/>
<path d="M2411 2015 c-11 -19 -25 -35 -31 -35 -5 0 -10 -9 -10 -20 0 -11 7
-20 15 -20 12 0 15 -15 15 -75 0 -98 16 -117 93 -113 51 3 52 4 55 36 3 31 1
33 -25 30 -28 -3 -28 -2 -31 60 l-3 62 31 0 c27 0 30 3 30 30 0 27 -3 30 -30
30 -25 0 -30 4 -30 25 0 21 -5 25 -29 25 -23 0 -34 -8 -50 -35z"/>
<path d="M1213 1999 c-58 -17 -80 -104 -37 -140 13 -10 12 -14 -3 -31 -14 -16
-15 -23 -5 -38 10 -16 8 -23 -12 -44 -71 -71 64 -138 177 -88 49 22 62 44 55
98 -4 36 -37 54 -100 54 -64 0 -69 16 -8 24 56 8 90 40 90 88 0 16 6 31 15 34
8 4 15 15 15 25 0 16 -8 19 -49 19 -27 0 -61 2 -77 4 -16 3 -44 1 -61 -5z"/>
<path d="M1592 1990 c-39 -24 -42 -24 -42 -5 0 10 -11 15 -35 15 l-35 0 0
-125 0 -125 45 0 45 0 0 69 c0 90 5 101 45 101 30 0 33 3 38 37 4 24 2 40 -6
45 -17 11 -18 10 -55 -12z"/>
<path d="M1835 2005 c-5 -2 -23 -6 -38 -9 -40 -9 -67 -59 -67 -124 0 -48 4
-58 34 -88 31 -31 39 -34 94 -34 79 0 92 6 92 41 0 28 -1 29 -40 23 -49 -8
-90 2 -90 21 0 12 15 15 75 15 l75 0 0 35 c0 42 -23 91 -48 103 -20 11 -73 21
-87 17z"/>
<path d="M2133 1999 c-63 -18 -96 -96 -74 -170 16 -54 58 -79 133 -79 74 0 88
6 88 40 0 29 0 29 -55 23 -37 -4 -60 -2 -70 7 -28 23 -15 30 60 30 l75 0 0 44
c0 54 -27 92 -78 106 -20 5 -39 10 -42 9 -3 0 -19 -5 -37 -10z"/>
<path d="M2965 2003 c-11 -3 -27 -12 -36 -19 -14 -13 -17 -13 -22 1 -4 9 -19
15 -37 15 l-30 0 0 -125 0 -125 40 0 40 0 0 74 c0 81 21 125 53 113 14 -5 17
-22 17 -97 l0 -90 45 0 45 0 0 99 c0 89 -2 103 -22 125 -24 26 -59 38 -93 29z"/>
<path d="M3250 2003 c-61 -12 -93 -91 -54 -134 14 -16 15 -20 0 -40 -11 -16
-12 -27 -5 -42 9 -15 7 -22 -10 -34 -26 -18 -28 -64 -2 -87 40 -36 162 -32
206 7 14 12 28 36 31 54 5 25 1 37 -19 57 -22 22 -35 26 -81 26 -68 0 -82 16
-20 23 58 6 94 38 94 83 0 19 6 34 15 38 8 3 15 15 15 26 0 18 -6 20 -52 20
-29 0 -62 2 -73 4 -11 2 -31 2 -45 -1z"/>
<path d="M3550 1997 c-39 -14 -57 -48 -46 -91 4 -18 21 -33 56 -51 28 -14 50
-30 50 -35 0 -13 -51 -13 -85 0 -26 10 -26 9 -23 -28 l3 -37 69 -3 c80 -3 111
11 121 58 9 42 -15 77 -72 101 -33 14 -43 23 -35 31 7 7 20 7 44 -1 28 -10 35
-9 45 6 18 24 16 41 -4 47 -46 13 -91 14 -123 3z"/>
<path d="M2640 1875 l0 -125 45 0 45 0 0 125 0 125 -45 0 -45 0 0 -125z"/>
</g>
</svg>
