<svg class="InlineSVG Icon Icon--sm" focusable="false" viewBox="0 0 36 16" fill="#000">
<path d="M2.5674.1484H0v15.5721h2.5674V.1485ZM31.6652 10.0833c1.1164-1.6 2.1954-3.479 3.1442-5.4697h-2.8652c-1.1162 2.1767-2.3626 4.1302-3.6278 5.6186-.3163.3907-.6512.7441-.9675 1.0604V.1484h-2.5673v13.0047c-.428.1674-.8374.2604-1.2094.2604-.6697 0-1.0046-.5209-1.0046-1.5813v-1.228c.0185-2.8837.0372-4.9674-2.214-5.9162-.5582-.2419-1.4511-.4093-2.586.0558-1.786.7442-3.535 2.9023-5.0047 5.3767v-5.507h-2.5861v11.107h2.6791c1.7489-4.2418 4.2419-7.8697 5.8977-8.5767.3721-.1488.5209-.093.5953-.0558.5768.2418.6699.7442.6512 3.5162v1.2466c0 2.0651 1.0977 4.1487 3.5721 4.1487 2.0838 0 4.2419-1.265 6.4186-3.7394l2.0652 3.3116h3.0325l-3.4233-5.4884ZM5.1163 15.7213h2.5674V4.6143H5.1163v11.107ZM6.4 2.8651c.7912 0 1.4325-.6414 1.4325-1.4325C7.8325.6414 7.1912 0 6.4 0c-.7912 0-1.4326.6414-1.4326 1.4326 0 .7911.6414 1.4325 1.4326 1.4325Z"></path>
</svg>
